<svg width="1510.03759765625px" height="336.8px" xmlns="http://www.w3.org/2000/svg" viewBox="-505.018798828125 -93.4 1510.03759765625 336.8" style="background: rgba(0, 0, 0, 0);" preserveAspectRatio="xMidYMid"><defs><filter id="editing-hole" x="-100%" y="-100%" width="300%" height="300%"><feFlood flood-color="#000000" result="black"></feFlood><feMorphology operator="dilate" radius="2" in="SourceGraphic" result="erode"></feMorphology><feGaussianBlur in="erode" stdDeviation="4" result="blur"></feGaussianBlur><feOffset in="blur" dx="2" dy="2" result="offset"></feOffset><feComposite operator="atop" in="offset" in2="black" result="merge"></feComposite><feComposite operator="in" in="merge" in2="SourceGraphic" result="inner-shadow"></feComposite></filter></defs><g filter="url(#editing-hole)"><g transform="translate(-291.73658323287964, 145.12000274658203)"><path d="M98.21-46.69L98.21-46.69L98.21-46.69Q116.25-46.13 117.27-46.13L117.27-46.13L117.27-46.13Q118.30-46.13 118.48-46.13L118.48-46.13L118.48-46.13Q122.95-46.50 122.95-44.83L122.95-44.83L122.95-44.83Q122.95-42.22 115.69-42.22L115.69-42.22L99.88-42.59L99.88-42.59Q95.05-42.22 94.12-41.66L94.12-41.66L94.12-41.66Q86.30-31.99 73.10-13.67L73.10-13.67L73.10-13.67Q59.89 4.65 59.89 8.18L59.89 8.18L59.89 8.18Q59.89 9.67 63.24 7.44L63.24 7.44L63.24 7.44Q65.29 7.44 65.29 8.00L65.29 8.00L65.29 8.00Q65.29 8.93 61.19 10.79L61.19 10.79L55.99 13.58L55.99 13.58Q52.45 16.55 47.90 16.55L47.90 16.55L47.90 16.55Q43.34 16.55 43.71 14.32L43.71 14.32L43.71 14.32Q43.90 9.86 56.92-8.28L56.92-8.28L56.92-8.28Q69.94-26.41 83.89-42.78L83.89-42.78L83.89-42.78Q70.49-40.36 63.43-40.36L63.43-40.36L63.43-40.36Q62.68-40.55 62.68-41.57L62.68-41.57L62.68-41.57Q62.68-42.59 64.91-44.45L64.91-44.45L64.91-44.45Q67.15-46.31 69.66-46.31L69.66-46.31L69.66-46.31Q72.17-46.31 77.75-46.50L77.75-46.50L87.23-46.50L87.23-46.50Q93.56-55.06 115.32-85.93L115.32-85.93L115.32-85.93Q124.25-98.77 124.25-107.14L124.25-107.14L124.25-107.14Q124.25-120.16 104.90-120.16L104.90-120.16L104.90-120.16Q89.84-120.16 69.47-111.79L69.47-111.79L69.47-111.79Q49.10-103.42 31.99-88.91L31.99-88.91L31.99-88.91Q19.90-78.86 12.83-67.15L12.83-67.15L12.83-67.15Q5.77-55.43 5.77-46.31L5.77-46.31L5.77-46.31Q5.77-31.62 23.25-31.62L23.25-31.62L23.25-31.62Q24.74-31.62 26.41-31.81L26.41-31.81L26.41-31.81Q37.76-32.74 47.90-44.73L47.90-44.73L47.90-44.73Q58.03-56.73 58.03-64.91L58.03-64.91L58.03-64.91Q58.03-65.66 57.85-66.59L57.85-66.59L57.85-66.59Q62.68-65.66 62.68-60.82L62.68-60.82L62.68-60.82Q62.68-52.82 52.27-42.04L52.27-42.04L52.27-42.04Q38.13-27.34 19.53-27.34L19.53-27.34L19.53-27.34Q9.30-27.34 3.53-32.74L3.53-32.74L3.53-32.74Q-2.23-38.13-2.23-47.43L-2.23-47.43L-2.23-47.43Q-2.23-69.38 24.55-91.70L24.55-91.70L24.55-91.70Q43.90-107.51 65.66-115.60L65.66-115.60L65.66-115.60Q87.42-123.69 103.51-123.69L103.51-123.69L103.51-123.69Q119.60-123.69 127.50-119.04L127.50-119.04L127.50-119.04Q135.41-114.39 135.41-106.11L135.41-106.11L135.41-106.11Q135.41-97.84 128.15-87.42L128.15-87.42L128.15-87.42Q123.88-80.54 98.21-46.69ZM166.10-39.43L166.10-39.43L166.10-39.43Q166.10-32.92 153.64-17.67L153.64-17.67L153.64-17.67Q138.94 0.37 128.53 0.37L128.53 0.37L125.55 0.37L125.55 0.37Q120.71 0.37 117.92-4.65L117.92-4.65L117.92-4.65Q115.69-8.18 115.69-12.46L115.69-12.46L115.69-12.46Q115.69-23.62 131.97-43.80L131.97-43.80L131.97-43.80Q148.24-63.98 158.29-63.98L158.29-63.98L158.29-63.98Q167.77-63.98 167.77-53.94L167.77-53.94L167.77-53.94Q167.77-51.34 166.84-47.24L166.84-47.24L166.84-47.24Q167.03-46.69 170.38-46.69L170.38-46.69L170.38-46.69Q173.72-46.69 180.61-50.22L180.61-50.22L180.61-50.22Q180.42-47.06 165.91-41.11L165.91-41.11L165.91-41.11Q166.10-40.36 166.10-39.43ZM154.01-49.10L154.01-49.10L154.01-49.10Q147.68-49.10 136.06-34.22L136.06-34.22L136.06-34.22Q124.43-19.34 124.43-12.28L124.43-12.28L124.43-12.28Q124.43-5.21 128.90-5.21L128.90-5.21L128.90-5.21Q136.90-5.21 149.17-19.72L149.17-19.72L149.17-19.72Q161.45-34.22 161.45-40.55L161.45-40.55L161.45-40.55Q158.47-42.22 154.01-49.10ZM230.83-56.36L230.83-56.36L230.83-56.36Q251.66-90.21 259.84-90.21L259.84-90.21L259.84-90.21Q261.14-90.21 263.47-89.37L263.47-89.37L263.47-89.37Q265.79-88.54 265.79-86.86L265.79-86.86L265.79-86.86Q265.79-85.93 264.86-84.44L264.86-84.44L264.86-84.44Q249.98-66.22 242.73-57.10L242.73-57.10L242.73-57.10Q220.78-29.39 218.55-17.30L218.55-17.30L218.55-17.30Q217.99-14.69 217.99-12.09L217.99-12.09L217.99-12.09Q217.99-3.72 224.87-3.72L224.87-3.72L224.87-3.72Q238.64-3.72 260.77-29.20L260.77-29.20L260.77-29.20Q262.63-31.06 263.93-31.34L263.93-31.34L263.93-31.34Q265.24-31.62 265.24-30.69L265.24-30.69L265.24-30.69Q265.24-29.76 264.12-28.46L264.12-28.46L264.12-28.46Q242.54-2.60 225.80 0.37L225.80 0.37L225.80 0.37Q224.87 0.56 223.20 0.56L223.20 0.56L223.20 0.56Q217.43 0.56 214.55-3.44L214.55-3.44L214.55-3.44Q211.67-7.44 211.67-12.09L211.67-12.09L211.67-12.09Q211.67-17.30 213.71-23.62L213.71-23.62L198.65-8.56L198.65-8.56Q188.42 0.93 182.56 0.93L182.56 0.93L182.56 0.93Q176.70 0.93 172.79-2.23L172.79-2.23L172.79-2.23Q168.14-5.77 168.14-12.09L168.14-12.09L168.14-12.09Q168.14-25.67 187.12-44.55L187.12-44.55L187.12-44.55Q206.09-63.43 221.90-63.43L221.90-63.43L221.90-63.43Q227.11-63.43 229.15-60.64L229.15-60.64L229.15-60.64Q229.90-59.71 230.83-56.36ZM175.96-9.86L175.96-9.86L175.96-9.86Q175.96-3.16 180.61-3.16L180.61-3.16L180.61-3.16Q188.60-3.16 207.20-25.11L207.20-25.11L207.20-25.11Q210.55-29.02 229.52-54.31L229.52-54.31L229.52-54.31Q228.22-56.54 225.06-56.54L225.06-56.54L225.06-56.54Q213.53-56.54 194.74-38.97L194.74-38.97L194.74-38.97Q175.96-21.39 175.96-9.86ZM294.62 0.93L294.62 0.93L294.62 0.93Q280.67 0.93 280.67-14.51L280.67-14.51L280.67-14.51Q280.67-22.32 284.77-31.62L284.77-31.62L284.77-31.62Q288.86-40.92 293.69-47.24L293.69-47.24L293.69-47.24Q292.76-47.06 291.28-47.06L291.28-47.06L291.28-47.06Q286.81-47.06 283.84-53.38L283.84-53.38L270.07-35.53L270.07-35.53Q258.54-21.20 256.68-21.20L256.68-21.20L256.68-21.20Q255.75-21.20 255.75-21.95L255.75-21.95L255.75-21.95Q255.75-23.81 258.91-27.34L258.91-27.34L258.91-27.34Q275.09-46.13 281.79-59.15L281.79-59.15L281.79-59.15Q286.07-75.33 292.58-75.33L292.58-75.33L292.58-75.33Q296.86-75.33 296.86-71.61L296.86-71.61L296.86-71.61Q296.86-67.89 292.21-62.12L292.21-62.12L287.74-56.17L287.74-56.17Q287.74-52.27 293.51-52.27L293.51-52.27L293.51-52.27Q296.86-52.27 300.95-54.68L300.95-54.68L305.78-57.66L305.78-57.66Q306.16-57.85 307.64-57.85L307.64-57.85L307.64-57.85Q309.13-57.85 310.81-55.99L310.81-55.99L310.81-55.99Q312.48-54.13 311.92-52.64L311.92-52.64L299.09-36.46L299.09-36.46Q287.18-21.20 287.18-12.37L287.18-12.37L287.18-12.37Q287.18-3.53 295.37-3.53L295.37-3.53L295.37-3.53Q303.92-3.53 316.39-12.65L316.39-12.65L316.39-12.65Q323.83-18.04 329.96-24.74L329.96-24.74L329.96-24.74Q335.73-31.43 336.29-31.43L336.29-31.43L336.29-31.43Q337.59-31.43 337.59-30.04L337.59-30.04L337.59-30.04Q337.59-28.64 335.92-26.78L335.92-26.78L329.96-20.09L329.96-20.09Q324.94-14.88 318.80-10.04L318.80-10.04L318.80-10.04Q304.11 0.93 294.62 0.93ZM391.72-55.61L391.72-55.61L394.32-56.17L394.32-56.17Q396.37-56.17 398.23-54.41L398.23-54.41L398.23-54.41Q400.09-52.64 400.09-51.80L400.09-51.80L400.09-51.80Q400.09-50.96 388.55-33.95L388.55-33.95L388.55-33.95Q377.02-16.93 377.02-10.23L377.02-10.23L377.02-10.23Q377.02-9.67 377.21-9.11L377.21-9.11L377.21-9.11Q378.14-4.84 381.30-4.84L381.30-4.84L381.30-4.84Q390.97-4.84 416.64-36.83L416.64-36.83L416.64-36.83Q417.20-37.57 417.94-37.57L417.94-37.57L417.94-37.57Q418.69-37.57 418.69-36.18L418.69-36.18L418.69-36.18Q418.69-34.78 417.01-32.55L417.01-32.55L417.01-32.55Q393.20-0.74 380.74-0.74L380.74-0.74L380.74-0.74Q379.07-0.74 377.58-1.30L377.58-1.30L377.58-1.30Q369.40-4.46 369.40-13.58L369.40-13.58L369.40-13.58Q369.40-16.74 370.14-19.90L370.14-19.90L358.42-8.74L358.42-8.74Q347.63 0.93 342.70 0.93L342.70 0.93L342.70 0.93Q337.78 0.93 333.31-2.23L333.31-2.23L333.31-2.23Q328.29-5.95 328.29-12.09L328.29-12.09L328.29-12.09Q328.29-25.67 347.26-44.55L347.26-44.55L347.26-44.55Q366.23-63.43 382.04-63.43L382.04-63.43L382.04-63.43Q388.18-63.43 390.23-59.15L390.23-59.15L390.23-59.15Q390.79-57.66 391.16-56.64L391.16-56.64L391.16-56.64Q391.53-55.61 391.72-55.61ZM336.10-9.86L336.10-9.86L336.10-9.86Q336.10-3.16 340.75-3.16L340.75-3.16L340.75-3.16Q351.35-3.16 369.95-26.78L369.95-26.78L369.95-26.78Q388.18-51.52 389.86-53.94L389.86-53.94L389.86-53.94Q388.37-56.54 385.02-56.54L385.02-56.54L385.02-56.54Q373.67-56.54 354.89-38.97L354.89-38.97L354.89-38.97Q336.10-21.39 336.10-9.86ZM405.67-90.77L405.67-90.77L405.67-90.77Q403.99-89.47 394.13-83.51L394.13-83.51L394.13-83.51Q384.28-77.56 383.16-77.56L383.16-77.56L383.16-77.56Q382.04-77.56 382.04-78.68L382.04-78.68L382.04-78.68Q382.04-79.24 382.60-79.79L382.60-79.79L402.32-95.05L402.32-95.05Q404.36-96.72 405.48-96.72L405.48-96.72L405.48-96.72Q407.15-96.72 407.15-94.49L407.15-94.49L407.15-94.49Q407.15-92.26 405.67-90.77ZM446.77-6.70L440.82-2.79L440.82-2.79Q435.43 0.37 427.52 0.37L427.52 0.37L427.52 0.37Q419.62 0.37 415.43-4.84L415.43-4.84L415.43-4.84Q411.25-10.04 408.27-21.39L408.27-21.39L408.27-21.39Q404.92-18.04 403.62-18.04L403.62-18.04L403.62-18.04Q402.69-18.04 402.69-19.34L402.69-19.34L402.69-19.34Q402.69-20.65 403.62-21.58L403.62-21.58L403.62-21.58Q409.76-29.20 424.45-43.52L424.45-43.52L447.89-65.47L447.89-65.47Q457.93-74.96 459.79-74.96L459.79-74.96L459.79-74.96Q465.74-74.96 465.74-70.49L465.74-70.49L465.74-70.49Q465.74-68.26 463.98-66.12L463.98-66.12L463.98-66.12Q462.21-63.98 461.37-62.77L461.37-62.77L461.37-62.77Q460.54-61.57 459.61-60.45L459.61-60.45L459.61-60.45Q456.26-54.68 452.82-36.64L452.82-36.64L452.82-36.64Q449.38-18.60 447.52-11.53L447.52-11.53L447.52-11.53Q462.95-11.72 479.32-31.62L479.32-31.62L479.32-31.62Q481.18-33.48 482.11-33.48L482.11-33.48L482.11-33.48Q483.04-33.48 483.04-32.27L483.04-32.27L483.04-32.27Q483.04-31.06 481.37-29.02L481.37-29.02L481.37-29.02Q470.58-16.37 461.28-11.35L461.28-11.35L461.28-11.35Q455.70-8.56 446.77-6.70L446.77-6.70ZM415.71-23.44L415.71-23.44L415.71-23.44Q415.71-17.11 419.89-13.11L419.89-13.11L419.89-13.11Q424.08-9.11 429.29-9.11L429.29-9.11L429.29-9.11Q434.50-9.11 437.29-11.16L437.29-11.16L437.29-11.16Q441.01-13.21 444.63-28.27L444.63-28.27L444.63-28.27Q448.26-43.34 449.00-54.87L449.00-54.87L449.75-61.19L449.75-61.19Q439.52-53.57 427.89-41.48L427.89-41.48L427.89-41.48Q416.27-29.39 415.90-25.48L415.90-25.48L415.90-25.48Q415.71-24.37 415.71-23.44ZM485.83-7.63L485.83-7.63L485.83-7.63Q478.39-2.42 475.23-2.42L475.23-2.42L475.23-2.42Q470.95-2.42 470.95-7.07L470.95-7.07L470.95-7.07Q470.95-8.74 472.07-11.16L472.07-11.16L472.07-11.16Q473.18-13.58 474.30-13.58L474.30-13.58L474.30-13.58Q475.97-13.58 475.04-10.79L475.04-10.79L475.04-10.79Q474.49-8.00 476.72-8.00L476.72-8.00L476.72-8.00Q478.95-8.00 482.11-10.23L482.11-10.23L475.04-15.62L475.04-15.62Q474.67-16.00 474.67-16.93L474.67-16.93L474.67-16.93Q474.67-17.86 476.53-19.62L476.53-19.62L476.53-19.62Q478.39-21.39 479.41-21.39L479.41-21.39L479.41-21.39Q480.44-21.39 488.44-15.07L488.44-15.07L488.44-15.07Q511.50-41.11 522.29-49.29L522.29-49.29L522.29-49.29Q507.59-53.75 500.53-53.75L500.53-53.75L500.53-53.75Q498.48-53.75 496.62-53.48L496.62-53.48L496.62-53.48Q494.76-53.20 492.62-51.24L492.62-51.24L492.62-51.24Q490.48-49.29 490.48-46.87L490.48-46.87L490.48-46.87Q490.48-44.45 492.53-42.87L492.53-42.87L492.53-42.87Q494.57-41.29 494.57-40.36L494.57-40.36L494.57-40.36Q494.57-39.43 493.18-39.43L493.18-39.43L493.18-39.43Q491.78-39.43 488.62-43.15L488.62-43.15L488.62-43.15Q485.65-46.87 485.65-50.78L485.65-50.78L485.65-50.78Q485.65-57.29 495.13-59.33L495.13-59.33L495.13-59.33Q500.15-60.26 505.36-60.26L505.36-60.26L505.36-60.26Q510.57-60.26 531.03-53.57L531.03-53.57L531.03-53.57Q533.63-55.06 536.61-55.06L536.61-55.06L536.61-55.06Q544.42-55.06 544.42-50.41L544.42-50.41L544.42-50.41Q544.42-48.55 542.00-46.96L542.00-46.96L542.00-46.96Q539.59-45.38 536.24-45.38L536.24-45.38L536.24-45.38Q532.89-45.38 530.10-46.69L530.10-46.69L530.10-46.69Q512.43-35.71 492.16-12.09L492.16-12.09L498.85-6.88L498.85-6.88Q506.85-1.67 517.45-1.67L517.45-1.67L517.45-1.67Q528.05-1.67 533.08-5.02L533.08-5.02L533.08-5.02Q538.10-8.37 538.10-13.58L538.10-13.58L538.10-13.58Q538.10-16.00 537.17-18.14L537.17-18.14L537.17-18.14Q536.24-20.27 538.84-20.27L538.84-20.27L538.84-20.27Q539.77-20.27 540.70-18.14L540.70-18.14L540.70-18.14Q541.63-16.00 541.63-13.02L541.63-13.02L541.63-13.02Q541.63-5.58 534.56-0.74L534.56-0.74L534.56-0.74Q527.50 4.09 516.34 4.09L516.34 4.09L516.34 4.09Q504.06 4.09 496.06-0.56L496.06-0.56L496.06-0.56Q492.90-2.23 485.83-7.63ZM660.67-7.63L660.67-7.63L660.67-7.63Q656.21-0.74 656.21 1.30L656.21 1.30L656.21 1.30Q656.21 3.35 657.88 4.28L657.88 4.28L657.88 4.28Q657.88 4.46 654.53 7.07L654.53 7.07L654.53 7.07Q651.56 8.56 647.84 8.56L647.84 8.56L647.84 8.56Q644.12 8.56 642.44 7.72L642.44 7.72L642.44 7.72Q640.77 6.88 641.33 5.02L641.33 5.02L641.33 5.02Q643.93-3.35 660.86-28.55L660.86-28.55L660.86-28.55Q677.78-53.75 683.55-64.17L683.55-64.17L683.55-64.17Q696.01-86.68 696.01-100.07L696.01-100.07L696.01-100.07Q696.01-105.65 694.15-109.55L694.15-109.55L694.15-109.55Q690.43-117.18 676.48-117.18L676.48-117.18L676.48-117.18Q654.72-117.18 631.47-98.39L631.47-98.39L631.47-98.39Q612.87-83.33 603.01-66.50L603.01-66.50L603.01-66.50Q593.15-49.66 593.15-36.46L593.15-36.46L593.15-36.46Q593.15-17.48 609.89-17.11L609.89-17.11L609.89-17.11Q610.64-17.11 611.38-17.11L611.38-17.11L611.38-17.11Q632.77-17.11 644.49-32.55L644.49-32.55L644.49-32.55Q648.95-38.69 648.95-42.97L648.95-42.97L648.95-42.97Q648.95-47.24 647.09-48.36L647.09-48.36L647.09-48.36Q646.91-48.55 646.91-49.10L646.91-49.10L646.91-49.10Q646.91-49.66 648.02-49.66L648.02-49.66L648.02-49.66Q652.86-49.66 652.86-43.34L652.86-43.34L652.86-43.34Q652.86-39.43 649.05-32.74L649.05-32.74L649.05-32.74Q645.23-26.04 635.56-20.09L635.56-20.09L635.56-20.09Q625.89-14.14 613.06-14.14L613.06-14.14L613.06-14.14Q600.22-14.14 592.60-22.13L592.60-22.13L592.60-22.13Q584.97-30.13 584.97-43.15L584.97-43.15L584.97-43.15Q584.97-72.54 623.29-103.23L623.29-103.23L623.29-103.23Q633.14-111.04 649.23-116.06L649.23-116.06L649.23-116.06Q665.32-121.09 680.02-121.09L680.02-121.09L680.02-121.09Q694.71-121.09 700.01-115.97L700.01-115.97L700.01-115.97Q705.31-110.86 705.31-102.30L705.31-102.30L705.31-102.30Q705.31-89.28 694.71-67.15L694.71-67.15L694.71-67.15Q691.36-60.26 679.64-42.04L679.64-42.04L693.97-60.26L693.97-60.26Q704.38-73.84 730.05-98.95L730.05-98.95L730.05-98.95Q735.63-104.35 742.42-107.97L742.42-107.97L742.42-107.97Q749.21-111.60 754.04-111.60L754.04-111.60L754.04-111.60Q760.74-111.60 760.74-104.53L760.74-104.53L760.74-104.53Q760.74-98.39 754.88-86.03L754.88-86.03L754.88-86.03Q749.02-73.66 743.07-62.59L743.07-62.59L743.07-62.59Q737.12-51.52 735.82-48.08L735.82-48.08L735.82-48.08Q734.51-44.64 733.96-42.59L733.96-42.59L733.96-42.59Q733.40-40.55 733.21-40.36L733.21-40.36L733.21-40.36Q733.77-41.29 745.49-54.59L745.49-54.59L745.49-54.59Q757.21-67.89 780.08-87.79L780.08-87.79L809.84-112.34L809.84-112.34Q813.38-115.32 816.17-115.32L816.17-115.32L816.17-115.32Q818.96-115.32 820.72-110.67L820.72-110.67L820.72-110.67Q822.49-106.02 822.49-103.14L822.49-103.14L822.49-103.14Q822.49-100.25 813.56-91.14L813.56-91.14L813.56-91.14Q790.31-67.33 774.13-39.06L774.13-39.06L774.13-39.06Q757.95-10.79 757.95 1.30L757.95 1.30L757.95 1.30Q757.95 4.46 759.07 5.67L759.07 5.67L759.07 5.67Q760.18 6.88 762.60 6.42L762.60 6.42L762.60 6.42Q765.02 5.95 772.74 2.60L772.74 2.60L772.74 2.60Q780.46-0.74 782.87-1.30L782.87-1.30L782.87-1.30Q783.80-0.93 783.80-0.37L783.80-0.37L783.80-0.37Q783.80 2.42 774.04 7.44L774.04 7.44L774.04 7.44Q764.27 12.46 759.34 12.46L759.34 12.46L759.34 12.46Q754.42 12.46 753.30 10.79L753.30 10.79L753.30 10.79Q749.95 5.95 749.95-0.93L749.95-0.93L749.95-0.93Q749.95-16.93 767.06-46.87L767.06-46.87L767.06-46.87Q778.04-65.66 800.92-97.46L800.92-97.46L800.92-97.46Q783.06-82.96 752.56-53.01L752.56-53.01L752.56-53.01Q722.05-23.06 712.57-6.14L712.57-6.14L712.57-6.14Q707.73 2.60 700.85 2.60L700.85 2.60L700.85 2.60Q697.69 2.60 697.69 0.37L697.69 0.37L697.69 0.37Q697.69-0.37 701.50-6.32L701.50-6.32L701.50-6.32Q705.31-12.28 718.33-34.22L718.33-34.22L718.33-34.22Q750.32-89.84 750.32-101.18L750.32-101.18L750.32-101.18Q750.32-104.16 748.28-104.16L748.28-104.16L748.28-104.16Q745.30-104.16 739.54-99.14L739.54-99.14L739.54-99.14Q718.89-81.84 695.64-53.94L695.64-53.94L695.64-53.94Q672.39-26.04 660.67-7.63ZM802.78 2.42L802.78 2.42L802.78 2.42Q800.73 2.42 799.06 1.86L799.06 1.86L799.06 1.86Q787.15-1.49 787.15-11.53L787.15-11.53L787.15-11.53Q787.15-24.55 803.52-41.66L803.52-41.66L803.52-41.66Q819.89-58.78 832.91-58.78L832.91-58.78L832.91-58.78Q837.19-58.78 839.88-56.45L839.88-56.45L839.88-56.45Q842.58-54.13 842.58-50.78L842.58-50.78L842.58-50.78Q842.58-40.36 826.86-30.88L826.86-30.88L826.86-30.88Q811.15-21.39 801.29-21.39L801.29-21.39L801.29-21.39Q799.80-21.39 798.68-21.76L798.68-21.76L798.68-21.76Q795.89-16.74 795.89-11.16L795.89-11.16L795.89-11.16Q795.89-1.49 805.10-1.49L805.10-1.49L805.10-1.49Q814.31-1.49 829.00-13.95L829.00-13.95L829.00-13.95Q840.35-23.06 848.35-33.29L848.35-33.29L848.35-33.29Q850.02-35.53 851.23-35.53L851.23-35.53L851.23-35.53Q852.44-35.53 852.44-34.41L852.44-34.41L852.44-34.41Q852.44-33.29 850.95-31.25L850.95-31.25L850.95-31.25Q840.91-18.04 826.77-7.81L826.77-7.81L826.77-7.81Q812.63 2.42 802.78 2.42ZM837.93-51.15L837.93-51.15L837.93-51.15Q837.93-53.38 833.19-53.38L833.19-53.38L833.19-53.38Q828.44-53.38 819.70-46.13L819.70-46.13L819.70-46.13Q807.98-36.46 801.47-25.85L801.47-25.85L801.47-25.85Q802.59-25.48 803.89-25.48L803.89-25.48L803.89-25.48Q810.96-25.48 822.77-33.02L822.77-33.02L822.77-33.02Q834.58-40.55 837.56-49.48L837.56-49.48L837.56-49.48Q837.93-50.41 837.93-51.15ZM881.27-6.70L875.32-2.79L875.32-2.79Q869.92 0.37 862.02 0.37L862.02 0.37L862.02 0.37Q854.11 0.37 849.93-4.84L849.93-4.84L849.93-4.84Q845.74-10.04 842.77-21.39L842.77-21.39L842.77-21.39Q839.42-18.04 838.12-18.04L838.12-18.04L838.12-18.04Q837.19-18.04 837.19-19.34L837.19-19.34L837.19-19.34Q837.19-20.65 838.12-21.58L838.12-21.58L838.12-21.58Q844.25-29.20 858.95-43.52L858.95-43.52L882.38-65.47L882.38-65.47Q892.43-74.96 894.29-74.96L894.29-74.96L894.29-74.96Q900.24-74.96 900.24-70.49L900.24-70.49L900.24-70.49Q900.24-68.26 898.47-66.12L898.47-66.12L898.47-66.12Q896.71-63.98 895.87-62.77L895.87-62.77L895.87-62.77Q895.03-61.57 894.10-60.45L894.10-60.45L894.10-60.45Q890.75-54.68 887.31-36.64L887.31-36.64L887.31-36.64Q883.87-18.60 882.01-11.53L882.01-11.53L882.01-11.53Q897.45-11.72 913.82-31.62L913.82-31.62L913.82-31.62Q915.68-33.48 916.61-33.48L916.61-33.48L916.61-33.48Q917.54-33.48 917.54-32.27L917.54-32.27L917.54-32.27Q917.54-31.06 915.86-29.02L915.86-29.02L915.86-29.02Q905.08-16.37 895.78-11.35L895.78-11.35L895.78-11.35Q890.20-8.56 881.27-6.70L881.27-6.70ZM850.21-23.44L850.21-23.44L850.21-23.44Q850.21-17.11 854.39-13.11L854.39-13.11L854.39-13.11Q858.58-9.11 863.78-9.11L863.78-9.11L863.78-9.11Q868.99-9.11 871.78-11.16L871.78-11.16L871.78-11.16Q875.50-13.21 879.13-28.27L879.13-28.27L879.13-28.27Q882.76-43.34 883.50-54.87L883.50-54.87L884.24-61.19L884.24-61.19Q874.01-53.57 862.39-41.48L862.39-41.48L862.39-41.48Q850.76-29.39 850.39-25.48L850.39-25.48L850.39-25.48Q850.21-24.37 850.21-23.44ZM956.41-59.89L956.41-59.89L983.20-60.26L983.20-60.26Q983.75-59.89 983.75-59.71L983.75-59.71L983.75-59.71Q983.75-58.03 960.60-55.06L960.60-55.06L960.60-55.06Q937.44-52.08 935.58-51.52L935.58-51.52L935.58-51.52Q932.05-48.36 922.56-32.64L922.56-32.64L922.56-32.64Q913.07-16.93 913.07-9.67L913.07-9.67L913.07-9.67Q913.07-2.79 922.56-2.79L922.56-2.79L922.56-2.79Q927.02-2.79 934.28-5.58L934.28-5.58L934.28-5.58Q941.53-8.37 945.44-10.79L945.44-10.79L945.44-10.79Q955.85-17.30 967.76-29.95L967.76-29.95L967.76-29.95Q970.36-32.55 971.29-32.55L971.29-32.55L971.29-32.55Q971.85-32.55 971.85-31.43L971.85-31.43L971.85-31.43Q971.85-30.32 969.06-26.97L969.06-26.97L969.06-26.97Q959.39-15.07 947.30-7.81L947.30-7.81L947.30-7.81Q932.79 1.12 919.58 1.12L919.58 1.12L919.58 1.12Q913.82 1.12 910.19-1.40L910.19-1.40L910.19-1.40Q906.56-3.91 906.56-11.53L906.56-11.53L906.56-11.53Q906.56-19.16 913.26-32.46L913.26-32.46L913.26-32.46Q919.96-45.76 923.49-52.27L923.49-52.27L923.49-52.27Q920.89-51.71 919.03-51.71L919.03-51.71L919.03-51.71Q913.63-51.71 913.63-55.99L913.63-55.99L913.63-55.99Q913.63-59.15 918.10-60.45L918.10-60.45L918.10-60.45Q918.65-60.45 919.77-60.64L919.77-60.64L930.56-60.64L930.56-60.64Q933.91-64.91 938.18-70.49L938.18-70.49L938.18-70.49Q943.39-77.19 945.25-77.19L945.25-77.19L945.25-77.19Q947.11-77.19 949.90-75.70L949.90-75.70L949.90-75.70Q952.69-74.21 952.69-72.17L952.69-72.17L952.69-72.17Q952.69-70.12 943.76-60.08L943.76-60.08L943.76-60.08Q948.60-59.89 956.41-59.89ZM972.59 2.42L972.59 2.42L972.59 2.42Q970.55 2.42 968.87 1.86L968.87 1.86L968.87 1.86Q956.97-1.49 956.97-11.53L956.97-11.53L956.97-11.53Q956.97-24.55 973.34-41.66L973.34-41.66L973.34-41.66Q989.71-58.78 1002.73-58.78L1002.73-58.78L1002.73-58.78Q1007.00-58.78 1009.70-56.45L1009.70-56.45L1009.70-56.45Q1012.40-54.13 1012.40-50.78L1012.40-50.78L1012.40-50.78Q1012.40-40.36 996.68-30.88L996.68-30.88L996.68-30.88Q980.96-21.39 971.11-21.39L971.11-21.39L971.11-21.39Q969.62-21.39 968.50-21.76L968.50-21.76L968.50-21.76Q965.71-16.74 965.71-11.16L965.71-11.16L965.71-11.16Q965.71-1.49 974.92-1.49L974.92-1.49L974.92-1.49Q984.13-1.49 998.82-13.95L998.82-13.95L998.82-13.95Q1010.17-23.06 1018.16-33.29L1018.16-33.29L1018.16-33.29Q1019.84-35.53 1021.05-35.53L1021.05-35.53L1021.05-35.53Q1022.26-35.53 1022.26-34.41L1022.26-34.41L1022.26-34.41Q1022.26-33.29 1020.77-31.25L1020.77-31.25L1020.77-31.25Q1010.72-18.04 996.59-7.81L996.59-7.81L996.59-7.81Q982.45 2.42 972.59 2.42ZM1007.75-51.15L1007.75-51.15L1007.75-51.15Q1007.75-53.38 1003.00-53.38L1003.00-53.38L1003.00-53.38Q998.26-53.38 989.52-46.13L989.52-46.13L989.52-46.13Q977.80-36.46 971.29-25.85L971.29-25.85L971.29-25.85Q972.41-25.48 973.71-25.48L973.71-25.48L973.71-25.48Q980.78-25.48 992.59-33.02L992.59-33.02L992.59-33.02Q1004.40-40.55 1007.38-49.48L1007.38-49.48L1007.38-49.48Q1007.75-50.41 1007.75-51.15ZM1048.85 0.93L1048.85 0.93L1048.85 0.93Q1034.90 0.93 1034.90-14.51L1034.90-14.51L1034.90-14.51Q1034.90-22.32 1039.00-31.62L1039.00-31.62L1039.00-31.62Q1043.09-40.92 1047.92-47.24L1047.92-47.24L1047.92-47.24Q1046.99-47.06 1045.51-47.06L1045.51-47.06L1045.51-47.06Q1041.04-47.06 1038.07-53.38L1038.07-53.38L1024.30-35.53L1024.30-35.53Q1012.77-21.20 1010.91-21.20L1010.91-21.20L1010.91-21.20Q1009.98-21.20 1009.98-21.95L1009.98-21.95L1009.98-21.95Q1009.98-23.81 1013.14-27.34L1013.14-27.34L1013.14-27.34Q1029.32-46.13 1036.02-59.15L1036.02-59.15L1036.02-59.15Q1040.30-75.33 1046.81-75.33L1046.81-75.33L1046.81-75.33Q1051.09-75.33 1051.09-71.61L1051.09-71.61L1051.09-71.61Q1051.09-67.89 1046.44-62.12L1046.44-62.12L1041.97-56.17L1041.97-56.17Q1041.97-52.27 1047.74-52.27L1047.74-52.27L1047.74-52.27Q1051.09-52.27 1055.18-54.68L1055.18-54.68L1060.01-57.66L1060.01-57.66Q1060.39-57.85 1061.87-57.85L1061.87-57.85L1061.87-57.85Q1063.36-57.85 1065.04-55.99L1065.04-55.99L1065.04-55.99Q1066.71-54.13 1066.15-52.64L1066.15-52.64L1053.32-36.46L1053.32-36.46Q1041.41-21.20 1041.41-12.37L1041.41-12.37L1041.41-12.37Q1041.41-3.53 1049.60-3.53L1049.60-3.53L1049.60-3.53Q1058.15-3.53 1070.62-12.65L1070.62-12.65L1070.62-12.65Q1078.06-18.04 1084.19-24.74L1084.19-24.74L1084.19-24.74Q1089.96-31.43 1090.52-31.43L1090.52-31.43L1090.52-31.43Q1091.82-31.43 1091.82-30.04L1091.82-30.04L1091.82-30.04Q1091.82-28.64 1090.15-26.78L1090.15-26.78L1084.19-20.09L1084.19-20.09Q1079.17-14.88 1073.03-10.04L1073.03-10.04L1073.03-10.04Q1058.34 0.93 1048.85 0.93Z" fill="#dadada"></path></g></g><style>text {
  font-size: 64px;
  font-family: Arial Black;
  dominant-baseline: central;
  text-anchor: middle;
}</style></svg>